<svg width="31" height="25" viewBox="0 0 31 25" fill="none" xmlns="http://www.w3.org/2000/svg">
<path d="M30.4182 12.0151C27.4228 4.8986 21.7878 0.483032 15.7079 0.483032C9.62808 0.483032 3.99308 4.8986 0.997639 12.0151C0.915986 12.2066 0.87384 12.4132 0.87384 12.6221C0.87384 12.8309 0.915986 13.0376 0.997639 13.229C3.99308 20.3455 9.62808 24.7611 15.7079 24.7611C21.7878 24.7611 27.4228 20.3455 30.4182 13.229C30.4999 13.0376 30.542 12.8309 30.542 12.6221C30.542 12.4132 30.4999 12.2066 30.4182 12.0151ZM15.7079 21.7263C11.0072 21.7263 6.55849 18.2515 3.99308 12.6221C6.55849 6.99259 11.0072 3.51779 15.7079 3.51779C20.4087 3.51779 24.8574 6.99259 27.4228 12.6221C24.8574 18.2515 20.4087 21.7263 15.7079 21.7263ZM15.7079 6.55255C14.5348 6.55255 13.388 6.90852 12.4125 7.57545C11.4371 8.24237 10.6768 9.1903 10.2279 10.2994C9.77893 11.4084 9.66147 12.6288 9.89034 13.8062C10.1192 14.9835 10.6841 16.065 11.5137 16.9139C12.3432 17.7627 13.4001 18.3408 14.5507 18.575C15.7014 18.8091 16.894 18.6889 17.9778 18.2296C19.0617 17.7702 19.9881 16.9922 20.6399 15.9941C21.2916 14.996 21.6395 13.8225 21.6395 12.6221C21.6395 11.0123 21.0146 9.46852 19.9022 8.33027C18.7898 7.19201 17.2811 6.55255 15.7079 6.55255ZM15.7079 15.6568C15.1214 15.6568 14.548 15.4788 14.0602 15.1454C13.5725 14.8119 13.1924 14.3379 12.9679 13.7834C12.7434 13.2289 12.6847 12.6187 12.7991 12.03C12.9136 11.4413 13.196 10.9006 13.6108 10.4762C14.0256 10.0517 14.554 9.76271 15.1293 9.64562C15.7046 9.52852 16.301 9.58862 16.8429 9.81831C17.3848 10.048 17.848 10.437 18.1739 10.936C18.4998 11.4351 18.6737 12.0218 18.6737 12.6221C18.6737 13.4269 18.3613 14.1988 17.8051 14.768C17.2489 15.3371 16.4945 15.6568 15.7079 15.6568Z" fill="black"/>
</svg>
